<?xml version="1.0" encoding="utf-8"?>
<!-- Generator: Adobe Illustrator 27.6.1, SVG Export Plug-In . SVG Version: 6.00 Build 0)  -->
<svg version="1.1" xmlns="http://www.w3.org/2000/svg" xmlns:xlink="http://www.w3.org/1999/xlink" x="0px" y="0px"
	 viewBox="0 0 766 188" style="enable-background:new 0 0 766 188;" xml:space="preserve">
<style type="text/css">
	.st0{display:none;}
	.st1{display:inline;}
	.st2{font-family:'Goldich-ExtraBold';}
	.st3{font-size:250px;}
	.st4{letter-spacing:25;}
	.st5{display:inline;fill:#6D6E71;}
	.st6{font-size:168.1873px;}
	.st7{letter-spacing:15.4;}
	.st8{fill:#E3DDCF;}
</style>
<g id="backup" class="st0">
	<text transform="matrix(1 0 0 1 -3.4999 188.0365)" class="st1 st2 st3 st4">ZIMA</text>
	
		<text transform="matrix(0.583 0 0 0.583 153.9563 404.7213)" style="fill:#6D6E71; font-family:'Amarante-Regular'; font-size:55px; letter-spacing:5.1;">ZOMETHING ELEGANT, ZOMETHING WILD</text>
	<text transform="matrix(0.583 0 0 0.583 730.2216 51.0073)" class="st5 st2 st6 st7">®</text>
</g>
<g id="zimword">
	<g id="zimmain">
		<path class="st8" d="M0,188L99,19h60.5L60.8,188H0z M9,68.5L17.8,19h67.5L9,68.5z M74.5,188l87.5-49.5L149,188H74.5z"/>
		<path class="st8" d="M208.5,188V19h57.8v169H208.5z"/>
		<path class="st8" d="M318,188l17.5-125.2l28,125.2H318z M322.2,19h62.2l52.5,85.2l36.8-44c-15,43.8-31.2,85.2-49.5,127.7L322.2,19
			z M491,188l-8-169h56.2l8,169H491z"/>
		<path class="st8" d="M586.2,188L646,70.5L632.7,188H586.2z M706.7,188L688,142.5l-38-6.5l29.5-14L637,19h59.2L766,188H706.7z"/>
	</g>
	<g id="rcop">
		<path class="st8" d="M717.6,19.5c0-8.6,7.6-18.7,19.3-19.5C729,3,724,11.1,724,19.1s5,16.2,13.8,18.9
			C725.3,37.8,717.6,28.3,717.6,19.5z M730.6,28.8V9.3h6.2v19.5H730.6z M740.8,14.7c0-2.2-0.9-4.3-2-5.4c0.4-0.1,0.9-0.1,1.5-0.1
			c2.6,0,6.6,1.3,6.6,4.4c0,3-3.5,4.2-6.5,4.5C740.6,17,740.8,15.8,740.8,14.7z M741.9,28.8l-3.1-9.2c4,0,6.4,2.2,8.1,5.3l2.1,3.9
			H741.9z M752.7,18.9c0-8-5-16.2-13.7-18.9c12.4,0.3,20.1,9.7,20.1,18.5c0,8.7-7.6,18.7-19.3,19.6C747.8,35.1,752.7,27,752.7,18.9z
			"/>
	</g>
</g>
</svg>
