<?xml version="1.0" encoding="UTF-8"?>
<svg id="Layer_1" data-name="Layer 1" xmlns="http://www.w3.org/2000/svg" viewBox="0 0 333.71 101.02">
  <defs>
    <style>
      .cls-1, .cls-2 {
        fill: #e3ddcf;
      }

      .cls-2 {
        stroke: #e3ddcf;
        stroke-miterlimit: 10;
        stroke-width: 2px;
      }
    </style>
  </defs>
  <path class="cls-1" d="m300.67,54.27c-.31-.35-.28-.32-.31-.35-.08-.08.07.08,0,0-.12-.15-.24-.29-.36-.43-.24-.29-.49-.58-.74-.87-.5-.58-1-1.15-1.51-1.71-1.03-1.13-2.09-2.23-3.2-3.29-1.12-1.06-2.29-2.08-3.51-3.03-1.24-.96-2.54-1.86-3.89-2.66-1.39-.83-2.85-1.57-4.34-2.2-1.58-.66-3.21-1.21-4.87-1.63-1.8-.46-3.63-.77-5.47-.96-1.48-.15-2.96-.22-4.45-.22-4,0-8.57.57-13.56,1.71l.43,1c4.85-1.14,9.28-1.71,13.13-1.71,2,0,4,.13,5.98.43,1.8.27,3.58.67,5.31,1.21,1.62.51,3.2,1.14,4.72,1.88,1.46.71,2.86,1.53,4.21,2.43,1.31.88,2.57,1.84,3.77,2.86,1.19,1.01,2.32,2.07,3.42,3.18,1.08,1.09,2.12,2.22,3.14,3.37.23.26.45.51.67.77.28.33.5.58.6.7,1.85,2.2,2.32,2.77,2.87,3.59.15.22.25.37.27.41,8.94,13.64,21.27,14.85,21.27,14.85.65.06,8.05.72,9.28-2.14.89-2.07-2.05-4.56-4-11.14-.69-2.32-1.03-3.48-1.05-3.59-.6-2.66-.57-4.33-1.37-4.55-.38-.11-.88.13-1,.43-.12.32.21.64.59,1.28,0,0,.18.31.7,1.71.32.88,1.27,4.67-.26,7.23-1.68,2.83-5.74,3.08-7.45,3.19-7.67.48-13.47-5.37-14.99-7l-4.03-4.78Z"/>
  <path class="cls-1" d="m217.86,1.36h.86V.36c-9.28.43-13.85.71-18.56.71s-9.28-.29-18.7-.71v1h.86c3.43,0,6.42,1.43,8.57,3.71-1.71,8.85-7.28,18.7-13.28,29.27-8.65,15.07-18.25,31.77-17.48,48.77.36.66.71,1.32,1.06,1.98-1.59-17.46,8.27-34.68,17.28-50.18,5.71-10.14,11.28-19.84,13.28-28.98,1.57,2,2.43,4.57,2.43,7.28v74.24c0,6.57-5.28,11.85-11.85,11.85h-.86v1c9.42-.57,13.99-.71,18.7-.71s9.28.14,18.56.71v-1h-.86c-6.42,0-11.85-5.28-11.85-11.85V13.21c0-6.57,5.42-11.85,11.85-11.85Z"/>
  <path class="cls-1" d="m181.05,99.3c-6.42,0-11.85-5.28-11.85-11.85,0-14.85-6.57-26.41-14.85-35.98.03-.02.06-.05.1-.07-.22-.22-.42-.46-.63-.7-.01.02-.03.04-.04.06-13.99-15.99-32.69-26.55-32.69-37.55,0-6.57,5.28-11.85,11.85-11.85h.86V.36c-9.28.57-13.85.71-18.56.71s-9.28-.14-18.7-.71v1h.86c6.57,0,11.85,5.28,11.85,11.85v74.24c0,6.57-5.28,11.85-11.85,11.85h-.86v1c9.42-.43,13.99-.71,18.7-.71s9.28.29,18.56.71v-1h-.86c-6.57,0-11.85-5.28-11.85-11.85l-3.43-82.8c1.28,31.27,39.69,32.84,39.69,82.8,0,6.57-5.28,11.85-11.85,11.85h-.86v1c9.42-.43,13.99-.71,18.7-.71s9.28.29,18.56.71v-1h-.86Z"/>
  <polyline class="cls-1" points="75.24 .36 62.62 .36 0 100.3 14.28 100.3"/>
  <path class="cls-1" d="m45.98.36l-37.13.15q6.57,11.14,11.56,24.56l.86-.43s-2.86-6.28-2.86-6.28c-1.59-3.5-1.52-7.51.4-10.88,1.88-3.3,4.73-5.44,9.09-5.91L45.98.36Z"/>
  <path class="cls-1" d="m60.13,99.09l-15.01,1c0,.06.02.13.02.19l34.04-.14q-6.57-11.14-11.56-24.56l-.86.43s2.86,6.28,2.86,6.28c1.59,3.5,1.52,7.51-.4,10.88-1.88,3.3-4.73,5.44-9.09,5.91Z"/>
  <path class="cls-1" d="m83.92,30.45q5.32-3.14,11.73-5.52l-.2-.41s-3,1.36-3,1.36c-1.67.76-3.59.73-5.2-.19-1.58-.9-2.6-2.26-2.82-4.34l-.45-6.7-.06-1.94v1.03-1.03l-.06,1.94-.45,6.7c-.22,2.08-1.24,3.44-2.82,4.34-1.61.92-3.52.95-5.2.19,0,0-3-1.36-3-1.36l-.2.41q6.41,2.39,11.73,5.52"/>
  <path class="cls-1" d="m227.59,51.86q5.32-3.14,11.73-5.52l-.2-.41s-3,1.36-3,1.36c-1.67.76-3.59.73-5.2-.19-1.58-.9-2.6-2.26-2.82-4.34l-.45-6.7-.06-1.94v1.03-1.03l-.06,1.94-.45,6.7c-.22,2.08-1.24,3.44-2.82,4.34-1.61.92-3.52.95-5.2.19,0,0-3-1.36-3-1.36l-.2.41q6.41,2.39,11.73,5.52"/>
  <path class="cls-1" d="m227.59,51.86q-5.32,3.14-11.73,5.52l.2.41s3-1.36,3-1.36c1.67-.76,3.59-.73,5.2.19,1.58.9,2.6,2.26,2.82,4.34l.45,6.7.06,1.94v-1.03,1.03l.06-1.94.45-6.7c.22-2.08,1.24-3.44,2.82-4.34,1.61-.92,3.52-.95,5.2-.19,0,0,3,1.36,3,1.36l.2-.41q-6.41-2.39-11.73-5.52"/>
  <g>
    <path class="cls-1" d="m76.61,40.48c0,.27,0,.54.05.81,1.08,5.58,3.86,9.3,7.26,12.24v-16.56c-2.56,1.41-4.54,2.37-7.31,3.51Z"/>
    <path class="cls-1" d="m76.13,41.81l-.1-.7c0-.13,0-.25-.01-.38-2.31.94-5.19,2.03-9.35,3.61l.43.86,1-.57c1.14-.57,2.28-.71,3.28-.71,4.28,0,8,3.43,8,8v31.26c1.26,2.03,2.82,3.71,4.54,5.2v-33.93c-3.6-3.01-6.58-6.82-7.79-12.63Z"/>
    <path class="cls-1" d="m91.22,58.72c-.09-.06-.28-.19-.28-.19-2.41-1.54-4.85-3.11-7.03-5v.9c2.08,1.74,4.38,3.22,6.66,4.65.23.14.65.43.65.43"/>
  </g>
  <line class="cls-2" x1="90.95" y1="93.37" x2="91.22" y2="32.77"/>
  <g>
    <path class="cls-1" d="m290.06,32.71L279.37.36c-.12.04-.37.09-.81.14l-22.49-.09c-.28-.02-.55-.03-.84-.05v.05l-10.25-.04c0,.06-.01.13-.02.19l10.27.69,1.21.06c3.28,0,6.21,1.48,8.92,3.91l-25.84,78.38c-3.14,9.42-11.85,15.7-21.7,15.7h-1.57v1c9.42-.57,13.99-.71,18.7-.71s9.28.14,18.56.71v-1h-1.71c-8.14,0-13.85-7.85-11.28-15.56l14.7-44.4,1-3.43,9.99-29.98,23.83,26.78Z"/>
    <path class="cls-1" d="m323.34,99.3c-6.71,0-13.28-6-15.85-13.85l-14.39-43.53-17.87-17.87,28.15,75.54c.72,0,1.41-.01,2.11-.01,4.71,0,9.42.14,18.7.71v-1h-.86Z"/>
  </g>
</svg>