<?xml version="1.0" encoding="UTF-8"?>
<svg id="Layer_1" data-name="Layer 1" xmlns="http://www.w3.org/2000/svg" viewBox="0 0 19.97 30">
  <defs>
    <style>
      .cls-1 {
        fill: #e3ddcf;
      }
    </style>
  </defs>
  <path class="cls-1" d="m9.97,15q4.5-2.65,9.92-4.67l-.17-.35s-2.54,1.15-2.54,1.15c-1.42.64-3.03.61-4.39-.16-1.34-.76-2.2-1.91-2.39-3.67l-.38-5.66-.05-1.64v.87-.87l-.05,1.64-.38,5.66c-.19,1.76-1.05,2.91-2.39,3.67-1.36.78-2.98.81-4.39.16,0,0-2.54-1.15-2.54-1.15l-.17.35q5.42,2.02,9.92,4.67"/>
  <path class="cls-1" d="m9.97,15Q5.47,17.65.05,19.67l.17.35s2.54-1.15,2.54-1.15c1.42-.64,3.03-.61,4.39.16,1.34.76,2.2,1.91,2.39,3.67l.38,5.66.05,1.64v-.87.87l.05-1.64.38-5.66c.19-1.76,1.05-2.91,2.39-3.67,1.36-.78,2.98-.81,4.39-.16,0,0,2.54,1.15,2.54,1.15l.17-.35q-5.42-2.02-9.92-4.67"/>
</svg>